<?xml version="1.0" encoding="utf-8"?>
<!-- Generator: Adobe Illustrator 23.0.1, SVG Export Plug-In . SVG Version: 6.00 Build 0)  -->
<svg version="1.1" xmlns="http://www.w3.org/2000/svg" xmlns:xlink="http://www.w3.org/1999/xlink" x="0px" y="0px"
	 viewBox="0 0 186 179" style="enable-background:new 0 0 186 179;" xml:space="preserve">
<style type="text/css">
	.st0{display:none;}
	.st1{display:inline;fill:#F0B90B;}
	.st2{display:inline;fill:#FFFDFA;}
	.st3{display:inline;opacity:0.1;fill:none;stroke:#191326;stroke-width:3;enable-background:new    ;}
	.st4{fill:#F0B90B;}
	.st5{fill:#FFFDFA;}
	.st6{opacity:0.1;fill:none;stroke:#191326;stroke-width:3;enable-background:new    ;}
	.st7{display:inline;}
	.st8{fill:#F5F3F3;}
	.st9{fill:#2F3030;}
	.st10{fill:#100C18;}
	.st11{fill:#828384;}
	.st12{fill:#343535;}
	.st13{opacity:0.1;}
	.st14{fill-rule:evenodd;clip-rule:evenodd;fill:#191326;}
	.st15{display:inline;fill:#F0B90B;stroke:#000000;stroke-width:5;stroke-miterlimit:10;}
	.st16{display:inline;fill:url(#SVGID_1_);}
	.st17{display:inline;fill-rule:evenodd;clip-rule:evenodd;fill:#606063;}
	.st18{display:inline;fill:#BEBEBE;}
	.st19{display:inline;fill:#F5F3F3;}
	.st20{fill-rule:evenodd;clip-rule:evenodd;fill:#612F01;}
	.st21{fill:#FEDC90;}
	.st22{fill:#D1884F;}
	.st23{display:inline;fill-rule:evenodd;clip-rule:evenodd;fill:#612F01;}
	.st24{fill-rule:evenodd;clip-rule:evenodd;fill:url(#SVGID_2_);}
	.st25{fill-rule:evenodd;clip-rule:evenodd;fill:#633001;}
	.st26{fill:#9E7200;}
	.st27{display:inline;fill:#9E7200;}
	.st28{display:inline;fill-rule:evenodd;clip-rule:evenodd;fill:#633001;}
	.st29{fill-rule:evenodd;clip-rule:evenodd;fill:#FFFDFA;}
	.st30{opacity:0.2;fill:none;stroke:#191326;stroke-width:2.837;enable-background:new    ;}
</style>
<g id="BNB_Below" class="st0">
	<circle class="st1" cx="133.5" cy="126.7" r="42.5"/>
	<path class="st2" d="M117.7,126.7l-6.5,6.5l-6.5-6.5l6.5-6.5L117.7,126.7z M133.5,110.9l11.2,11.2l6.5-6.5l-11.2-11.2l-6.5-6.5
		l-17.7,17.7l6.5,6.5L133.5,110.9z M155.9,120.2l-6.5,6.5l6.5,6.5l6.5-6.5L155.9,120.2z M133.5,142.6l-11.2-11.2l-6.5,6.5l17.7,17.7
		l17.7-17.7l-6.5-6.5L133.5,142.6z M133.5,133.3l6.5-6.5l-6.5-6.5l-6.5,6.5L133.5,133.3z"/>
	<circle class="st3" cx="133.5" cy="126.7" r="40.3"/>
</g>
<g id="BNB_Above">
	<circle class="st4" cx="53.9" cy="53.7" r="42.5"/>
	<path class="st5" d="M38.1,53.7l-6.5,6.5L25,53.7l6.5-6.5L38.1,53.7z M53.9,37.8L65.1,49l6.5-6.5L60.5,31.3l-6.5-6.5L36.2,42.5
		l6.5,6.5L53.9,37.8z M76.3,47.1l-6.5,6.5l6.5,6.5l6.5-6.5L76.3,47.1z M53.9,69.5L42.7,58.3l-6.5,6.5l17.7,17.7l17.7-17.7l-6.5-6.5
		L53.9,69.5z M53.9,60.2l6.5-6.5l-6.5-6.5l-6.5,6.5L53.9,60.2z"/>
	<circle class="st6" cx="53.9" cy="53.7" r="40.3"/>
</g>
<g id="ETH" class="st0">
	<g class="st7">
		<g>
			<circle class="st8" cx="133.7" cy="127.4" r="43.5"/>
			<path class="st9" d="M133.7,142.8v15.1l18.6-26.2L133.7,142.8z"/>
			<path class="st10" d="M133.7,119.4v19.5l18.6-11L133.7,119.4z"/>
			<path class="st9" d="M133.7,96.9v22.4l18.6,8.5L133.7,96.9z"/>
			<path class="st11" d="M133.7,142.8v15.1l-18.6-26.2L133.7,142.8z"/>
			<path class="st12" d="M133.7,119.4v19.5l-18.6-11L133.7,119.4z"/>
			<path class="st11" d="M133.7,96.9v22.4l-18.6,8.5L133.7,96.9z"/>
			<g class="st13">
				<path class="st14" d="M133.7,166.4c21.5,0,39-17.5,39-39s-17.5-39-39-39s-39,17.5-39,39S112.2,166.4,133.7,166.4z M133.7,170.9
					c24,0,43.5-19.5,43.5-43.5s-19.5-43.5-43.5-43.5s-43.5,19.5-43.5,43.5S109.7,170.9,133.7,170.9z"/>
			</g>
		</g>
	</g>
</g>
<g id="DCASH" class="st0">
	<circle class="st15" cx="53.5" cy="55.1" r="42.5"/>
	<g class="st7">
		<path d="M36,76.8c1.5,1.8,5.5,1.4,7,0.5c3.4-1.9,4.3-4.2,5.4-6.1c1.2-1.9,3.3-9,6-9c0.3,0.1,0,1.7,0.4,2.8c-0.5-0.1-1.3,0-1.3,0
			s0,0.6,0.1,0.6c-0.8,0.1-2,0.1-2.3,0.2c-0.3,0.1-0.8,1.4-0.9,1.9c-0.1,0.5,0.1,1.4-0.2,1.8c-0.3,0.5-0.6,1-0.4,1.2
			c0.2,0.2,0.4,0.5,0,0.7c-0.4,0.2-0.5,0.2-0.5,0.4c0,0.2,0.2,0.3-0.1,0.4c-0.2,0.1-0.3,0.4-1.5,0.7c0.2,0.2,0.7,0.1,0.7,0.1
			s-0.4,0.2-0.7,0.3c0.2,0.1,0.6,0.1,0.6,0.1s-0.3,0.3-1.2,0.5c0.1,0.1,1.2,0.2,2-0.1c0.9-0.4,2-1.6,2.1-2c0.1-0.3,0.1-2.3,0.5-3
			c0.4-0.6,0.7-1.1,0.8-1.1c0.1,0,1.6,0.4,2,0.6c0.5,0.3,2,1.5,2.1,1.8c0.1,0.3,0.5,0.4,0.8,0.5c0.3,0.1,0.5,0.9,0.7,1.1
			c0.2,0.3,0.8,0.4,0.4,2c1.3-1,0.2-2.9,0.2-2.9s1.1,0.4,1,1.7c0.3-0.3,0.3-0.9,0.3-0.9s0.9,0.8,0.6,2.4c1.4-1.8-0.8-3.6-0.8-3.6
			s-0.2-0.7-0.5-0.8c-0.3-0.1-0.9,0-1.5-0.5c-0.6-0.5-0.7-0.6-0.7-0.6s1.3,0,1.3-0.8c0.1,0,1.1,0.1,2.2,0c1.1-0.1,1.7-1,1.5-2.3
			c-0.2-1.4-2.5-4.3-2.7-4.8c0,0,1.4-0.7,2.1-0.7c0.6-0.1,2.5,0,3.1-0.1c-0.4,1.1-0.6,1.7-0.2,1.9c0.3,0.2,1.9,0.8,2.4,1
			c0.5,0.2,1.3,0.8,1.3,1.2c0,0.4,0,0.5,0.3,0.8c0.3,0.3,0.7,0.9,0.5,1.1c-0.2,0.2-0.5,0.7-1.4,0.7c1,0.5,1.9-0.2,1.9-0.2
			s-0.1,0.5-0.7,0.7c1.2,0.2,1.5-0.9,1.6-1.1c0-0.2,0.3-0.2,0.2-0.5c0-0.3-0.9-0.8-0.8-1c0.1-0.3,0.2-0.7,0-0.9
			c-0.2-0.2-1.5-1.6-1.5-1.6s1.5-0.7,2.2-1.4c0.7-0.8,1.3-1.2,1.6-1.3c0.3,0,0.5,0,0.7-0.4c0.3-0.4,1-0.8,1.2-0.8
			c0.2,0,0.8,0,0.3,1.1c1.4-1.1,0.4-2.5-0.5-2c0-0.1,0.6-1.1,1.4,0.2c-0.1-1.8-1.9-1.2-1.9-1.2s0.2-0.6,1.3-0.3
			c-0.9-1.2-2.2,0-2.3,0.3c-0.1,0.3,0.2,1.2-0.4,1.6c-0.6,0.3-2.9,1.6-3,1.6c0-0.7-0.2-1.2-0.2-1.2c1.8-1.7,1.6-5.4-0.7-7
			c-1.3-0.9-3.9-2.7-0.7-3.4c0.2-0.1,0.5,0,0.7,0.2c-0.1,0.2-0.2,0.7,0,1.1c0-0.3,0.1-0.6,0.2-0.7c0,0.2,0,0.5,0.1,0.7
			c0-0.3,0.1-0.5,0.2-0.7c0.2,0.1,0.4,0.2,0.7,0.2c0.5,0.1,0.9,0.1,1.2,0.6c0.3,0.5,1.1,0.9,1.9,0.3c0,0,0.3,0.1,0.4,0.3
			c0.3,0.4,1.2,1.5,2.1,0.8c-0.7,0.2-1-0.2-1-0.2s0.9,0,0.6-0.9c0,0.4-0.4,0.8-1.1,0.4c-0.3-0.2-0.6-0.5-0.8-0.9
			c0.1-0.2,0.1-0.4,0.1-0.6c-0.1,0.1-0.2,0.3-0.3,0.4c0,0,0-0.1-0.1-0.1c0-0.1,0.1-0.3,0.1-0.4c-0.1,0.1-0.1,0.2-0.2,0.2
			c-0.1-0.2-0.3-0.4-0.5-0.5c-0.4-0.3-0.7-0.4-0.9-0.5l0.5-0.4c0,0,0.1,0,0.1,0c-0.1,0.1-0.1,0.2-0.2,0.3c0.2-0.1,0.3-0.2,0.4-0.3
			c0,0,0.1,0,0.1,0c-0.1,0.1-0.1,0.3-0.2,0.4c0.2-0.1,0.3-0.2,0.5-0.3c0,0,0,0,0,0c-0.1,0.1-0.1,0.3-0.2,0.4
			c0.2-0.1,0.3-0.2,0.5-0.3c0,0,0.1,0,0.1,0c-0.1,0.1-0.2,0.3-0.3,0.4c0.2-0.1,0.4-0.2,0.5-0.3l0,0c-0.1,0.2-0.2,0.5-0.5,0.8
			c0.3-0.1,0.6-0.4,0.7-0.6c-0.1,0.2-0.2,0.4-0.4,0.6c0.4-0.1,0.7-0.5,0.8-0.7c0.3,0,0.5,0,0.5,0s0-0.6-0.2-1
			c-0.2-0.4-0.6-0.5-1-0.7c-0.3-0.2-1.2-0.7-1.4-1c-0.2-0.3-2.4-1.4-2.8-1.1c-0.3-0.1-1-0.3-1.5-0.8c-0.7-0.6-2.9-3.3-6.2-3.5
			c-0.9-0.7-1.9-0.3-1.9-0.3s0.4-1.6,0.1-2c-0.1,1-0.4,1.4-0.6,1.6c-8.7-7.1-27.4,0.7-27.4,0.7s8.5,0.6,8.3,4.2
			c-0.1,1.5-1,2-1.6,3.9c1.3-2.4,3.5-2,4.2-1.5c0.7,0.4,0.7,1.4,0.3,2.1s-0.8,2.1-0.6,3c0.2,0.9,0.6,1.9,0.6,1.9s-0.4-1.4,0.2-2.3
			c0.6-0.9,2.7-1.7,4.6-1.7c1.9,0,3,2.4,3,2.4s1.6-0.5,1.2,0.9c-0.4,1.5-0.9,1.8-0.5,3.4c0.2,0.8,0.6,1.6,0.8,2.2
			c-0.3,0.1-0.5,0.3-0.8,0.4c0.3,0,0.5,0,0.7,0.1c-0.6,0.2-1.3,0.7-1.8,1.3c0.3-0.1,0.6-0.1,0.8-0.1c-0.6,0.2-1.2,0.7-1.7,1.3
			c0.3-0.1,0.6-0.1,0.8-0.1c-0.4,0.3-0.9,0.7-1.2,1.2c0.3-0.1,0.5-0.2,0.8-0.2c-0.4,0.4-0.9,0.9-1.2,1.6c0.2-0.1,0.5-0.2,0.7-0.3
			c-0.4,0.5-0.7,1-0.9,1.7c0.2-0.2,0.4-0.3,0.6-0.4c-0.5,0.5-0.9,1.2-1.2,2c0.2-0.1,0.3-0.2,0.4-0.3c-0.3,0.5-0.7,1-0.8,1.7
			c0.2-0.2,0.4-0.3,0.6-0.4c-0.3,0.5-0.7,1.1-0.8,1.7c0.1-0.1,0.3-0.2,0.4-0.3c-0.3,0.4-0.6,0.8-0.8,1.3c0.2-0.1,0.4-0.2,0.5-0.3
			c-0.3,0.3-0.6,0.7-0.8,1.2c0.1-0.1,0.2-0.1,0.4-0.2c-0.3,0.3-0.6,0.6-0.8,1c0.1,0,0.2-0.1,0.3-0.1c-0.3,0.3-0.6,0.6-0.8,1
			c0.2-0.1,0.3-0.1,0.4-0.2c0,0.1-0.1,0.1-0.1,0.2c-0.3,0.2-0.6,0.5-0.8,0.8c0.1,0,0.2-0.1,0.3-0.1c0,0,0,0,0,0
			c-0.3,0.2-0.7,0.4-1,0.7c0.1,0,0.3,0,0.4,0c-0.4,0.2-0.8,0.4-1.1,0.8c0.1,0,0.2,0,0.3,0c-0.4,0.1-0.7,0.3-1.1,0.6
			c0.1,0,0.3,0,0.4,0c0,0-0.1,0-0.1,0.1c-0.4,0-0.9,0.1-1.3,0.3c0.2,0,0.3,0.1,0.5,0.1c0,0,0,0,0,0c-0.4-0.1-0.8-0.1-1.2,0
			c0.1,0,0.1,0.1,0.2,0.1c-0.3-0.1-0.7-0.1-1,0c0.1,0,0.1,0.1,0.2,0.1c-0.4-0.1-0.9-0.1-1.3,0c0.1,0,0.1,0.1,0.2,0.1
			c-1.2-0.1-2-0.6-2.4-2.1c-0.6-2.4,1.3-5.8,3.4-7.6C34.9,70.1,34.2,74.7,36,76.8z M64.4,41.5c0,0-1.7-1.3-3.2-1.5
			c-0.2-0.3-0.4-0.5-0.5-0.6C64,40.6,64.4,41.5,64.4,41.5z M62.5,52.1c0.1-0.1,0.1-0.2,0.2-0.3l0,0c0,0.1,0,0.3,0,0.4
			C62.6,52.2,62.6,52.2,62.5,52.1z M57.4,46.8c0.5-1.5,2.5-5.5,1.9-6.7c0.3,0,0.7,0,1.1,0.4c-0.2-0.8-1.2-0.9-1.2-0.9s0.7-0.5,2,0.4
			c-0.7-0.1-1.2-0.1-1.2-0.1c1.5,0.2,3.8,1.4,5.4,3.3c0.4,0.4,0.7,0.6,1.1,1c-0.3,0-0.6,0-0.9,0.1c-0.4-0.2-1.4-0.6-2.7-0.5
			c1.2,0.1,1.9,0.4,2.3,0.6c0,0,0,0-0.1,0c-0.5-0.2-1.4-0.4-2.4-0.4c1.2,0.1,2,0.4,2.3,0.6c-0.4,0.1-0.8,0.2-1.2,0.4
			c0.2,0,0.5,0.1,0.6,0.2c-0.5,0.1-1.2,0.2-1.8,0.6c0.3,0,0.5,0.1,0.7,0.1c-0.5,0.1-1.2,0.4-1.6,0.8c0.3,0,0.6,0,0.8,0
			c-0.5,0.4-1.1,1-1.4,1.7c0.2-0.1,0.5-0.2,0.7-0.3c-0.2,0.6-0.5,1.3-0.4,2c0.2-0.2,0.4-0.4,0.5-0.6c-0.1,0.5-0.2,1.1-0.1,1.7
			c0.2-0.3,0.3-0.5,0.5-0.7c-0.1,0.4-0.1,0.9,0,1.3c-0.1,0.1-0.1,0.1-0.2,0.2c-0.3-0.1-0.5-0.1-0.8-0.2c-1.4-0.5-3-0.9-3.7-1.7
			C56.9,49.3,56.8,48.3,57.4,46.8z M51.4,58c-0.2-0.5-0.3-1.1,0.1-1.3c0.7-0.3,1.1,0,1.1,0s0.2-0.7,1.8-0.5c-0.3,0-0.7,0.1-0.9,0.2
			c0.3,0.1,0.4,0.2,0.6,0.2c0,0,0,0-0.1,0c-0.3,0-1.1,0-1.4,0.2c0.3,0.1,0.5,0.2,0.6,0.3c0,0,0,0,0,0.1c-0.5,0-1.1,0-1.6,0.2
			c0.3,0.1,0.6,0.3,0.8,0.4C52.1,57.8,51.8,57.9,51.4,58z"/>
	</g>
</g>
<g id="CAKE" class="st0">
	
		<linearGradient id="SVGID_1_" gradientUnits="userSpaceOnUse" x1="133.3083" y1="95.6433" x2="133.3083" y2="10.6433" gradientTransform="matrix(1 0 0 -1 0 180)">
		<stop  offset="0" style="stop-color:#54DADE"/>
		<stop  offset="0.762" style="stop-color:#24C7D6"/>
	</linearGradient>
	<circle class="st16" cx="133.3" cy="126.9" r="42.5"/>
	<path class="st17" d="M105.7,131.5l0,0.5c0,0.6,0.1,1.2,0.2,1.8h-0.2v0.9c0,0.5,0,0.9,0.1,1.3c1.1,8.6,13,15.4,27.5,15.4
		s26.4-6.8,27.5-15.4c0.1-0.4,0.1-0.9,0.1-1.3v-0.9h-0.2c0.1-0.6,0.2-1.2,0.2-1.8c0-0.2,0-0.3,0-0.5c-0.4-9-12.6-16.3-27.6-16.3
		S106.1,122.5,105.7,131.5L105.7,131.5z M103.4,131.5c0.2-5.5,4-10.1,9.2-13.3c5.4-3.3,12.7-5.2,20.7-5.2c8,0,15.3,2,20.7,5.2
		c5.2,3.2,9,7.8,9.2,13.3h0v3.2c0,5.7-3.8,10.5-9.2,13.8c-5.4,3.3-12.7,5.2-20.7,5.2c-8,0-15.3-2-20.7-5.2
		c-5.4-3.3-9.2-8.1-9.2-13.8L103.4,131.5L103.4,131.5L103.4,131.5z"/>
	<path class="st18" d="M160.9,134.7c0,9.3-12.4,16.8-27.6,16.8s-27.6-7.5-27.6-16.8v-2.7h55.2L160.9,134.7L160.9,134.7z"/>
	<path class="st19" d="M160.9,132c0,9.3-12.4,16.8-27.6,16.8s-27.6-7.5-27.6-16.8c0-9.3,12.4-16.8,27.6-16.8S160.9,122.7,160.9,132
		L160.9,132z"/>
	<g class="st7">
		<path id="H" class="st20" d="M109.9,127.3L109.9,127.3c0,0.8,0.1,1.5,0.3,2.3h-0.3v1c0,0.4,0,0.9,0.1,1.3
			c1.1,6.4,9.9,11.4,20.6,11.4c10.7,0,19.5-5,20.6-11.4c0.1-0.4,0.1-0.9,0.1-1.3v-1H151c0.2-0.7,0.3-1.4,0.3-2.2v-0.1v0
			c0-7-9.3-12.6-20.7-12.6C119.2,114.7,110,120.3,109.9,127.3z M107.7,127.3L107.7,127.3v3.2c0,4.6,3,8.4,7.1,10.9
			c4.2,2.5,9.7,4,15.8,4c6.1,0,11.6-1.5,15.8-4c4.1-2.5,7.1-6.3,7.1-10.9v-3.2c0-4.6-3-8.4-7.1-10.9c-4.2-2.5-9.7-4-15.8-4
			c-6.1,0-11.6,1.5-15.8,4C110.7,118.9,107.7,122.7,107.7,127.3z"/>
	</g>
	<g class="st7">
		<path id="I" class="st21" d="M151.3,130.5c0,7-9.3,12.6-20.7,12.6s-20.7-5.7-20.7-12.6v-3h41.4V130.5z"/>
	</g>
	<g class="st7">
		<path id="J" class="st22" d="M151.3,127.3c0,7-9.3,12.6-20.7,12.6s-20.7-5.7-20.7-12.6c0-7,9.3-12.6,20.7-12.6
			S151.3,120.3,151.3,127.3z"/>
	</g>
	<path class="st23" d="M116.2,120.5L116.2,120.5c0,0.8,0.1,1.5,0.3,2.3h-0.3v1c0,0.4,0,0.9,0.1,1.3c1.1,6.4,9.9,11.4,20.6,11.4
		s19.5-5,20.6-11.4c0.1-0.4,0.1-0.9,0.1-1.3v-1h-0.3c0.2-0.7,0.3-1.4,0.3-2.2v-0.1v0c0-7-9.3-12.6-20.7-12.6
		S116.2,113.5,116.2,120.5z M113.9,120.5L113.9,120.5v3.2c0,4.6,3,8.4,7.1,10.9c4.2,2.5,9.7,4,15.8,4s11.6-1.5,15.8-4
		c4.1-2.5,7.1-6.3,7.1-10.9v-3.2c0-4.6-3-8.4-7.1-10.9c-4.2-2.5-9.7-4-15.8-4s-11.6,1.5-15.8,4C116.9,112.1,113.9,115.9,113.9,120.5
		z"/>
	<g class="st7">
		<path class="st21" d="M157.5,123.7c0,7-9.3,12.6-20.7,12.6s-20.7-5.7-20.7-12.6v-3h41.4V123.7z"/>
	</g>
	<g class="st7">
		<path class="st22" d="M157.5,120.5c0,7-9.3,12.6-20.7,12.6s-20.7-5.7-20.7-12.6s9.3-12.6,20.7-12.6S157.5,113.5,157.5,120.5z"/>
	</g>
	<g class="st7">
		<path class="st20" d="M109.9,113.7L109.9,113.7c0,0.8,0.1,1.5,0.3,2.3h-0.3v1c0,0.4,0,0.9,0.1,1.3c1.1,6.4,9.9,11.4,20.6,11.4
			c10.7,0,19.5-5,20.6-11.4c0.1-0.4,0.1-0.9,0.1-1.3v-1H151c0.2-0.7,0.3-1.4,0.3-2.2v-0.1v0c0-7-9.3-12.6-20.7-12.6
			C119.2,101.1,110,106.7,109.9,113.7z M107.7,113.7L107.7,113.7v3.2c0,4.6,3,8.4,7.1,10.9c4.2,2.5,9.7,4,15.8,4
			c6.1,0,11.6-1.5,15.8-4c4.1-2.5,7.1-6.3,7.1-10.9v-3.2c0-4.6-3-8.4-7.1-10.9c-4.2-2.5-9.7-4-15.8-4c-6.1,0-11.6,1.5-15.8,4
			C110.7,105.3,107.7,109.1,107.7,113.7z"/>
	</g>
	<g class="st7">
		<path class="st21" d="M151.3,116.9c0,7-9.3,12.6-20.7,12.6s-20.7-5.7-20.7-12.6v-3h41.4V116.9z"/>
	</g>
	<g class="st7">
		<path class="st22" d="M151.3,113.7c0,7-9.3,12.6-20.7,12.6s-20.7-5.7-20.7-12.6c0-7,9.3-12.6,20.7-12.6S151.3,106.7,151.3,113.7z"
			/>
	</g>
	<g class="st7">
		
			<linearGradient id="SVGID_2_" gradientUnits="userSpaceOnUse" x1="127.2821" y1="72.9102" x2="127.2821" y2="46.632" gradientTransform="matrix(1 0 0 -1 0 180)">
			<stop  offset="0" style="stop-color:#9F4A08"/>
			<stop  offset="0.37" style="stop-color:#7D3900"/>
			<stop  offset="1" style="stop-color:#8D4104"/>
		</linearGradient>
		<path class="st24" d="M114.8,114.5c0,2.3,1.7,4.4,4.4,5.8l-1.9,3.2v8.1c0,1.1,0.9,1.9,1.9,1.9c1.1,0,1.9-0.9,1.9-1.9v-6.5l2-3.4
			c1.3,0.3,2.6,0.4,4.1,0.4c6.9,0,12.5-3.4,12.5-7.7c0-4.2-5.6-7.7-12.5-7.7S114.8,110.3,114.8,114.5z"/>
		<path class="st25" d="M119.2,120.3l-0.9-0.5c-2.2-1.4-3.5-3.3-3.5-5.3c0-4.2,5.6-7.7,12.5-7.7c6.9,0,12.5,3.4,12.5,7.7
			s-5.6,7.7-12.5,7.7c-1.4,0-2.8-0.1-4.1-0.4l-2,3.4v6.5c0,1.1-0.9,1.9-1.9,1.9c-1.1,0-1.9-0.9-1.9-1.9v-8.1L119.2,120.3
			L119.2,120.3z M115.4,123.6v8.1c0,2.2,1.8,3.9,3.9,3.9c2.2,0,3.9-1.8,3.9-3.9v-5.9l1-1.8c1,0.1,2,0.2,3,0.2c3.7,0,7.2-0.9,9.8-2.5
			c2.6-1.6,4.6-4,4.6-7.1s-2-5.5-4.6-7.1c-2.6-1.6-6.1-2.5-9.8-2.5s-7.2,0.9-9.8,2.5c-2.6,1.6-4.6,4-4.6,7.1c0,2.7,1.5,4.9,3.7,6.5
			l-0.9,1.5c-0.1,0.1-0.2,0.3-0.2,0.5C115.4,123.2,115.4,123.4,115.4,123.6L115.4,123.6z"/>
	</g>
	<g class="st7">
		<g>
			<path id="K" class="st26" d="M118.7,111.3c0,2.2,2.8,4,6.2,4c3.4,0,6.2-1.8,6.2-4c0-2.2-2.8-4-6.2-4
				C121.5,107.3,118.7,109.1,118.7,111.3z"/>
		</g>
		<path class="st26" d="M118.7,109.6h12.5v1.7h-12.5V109.6z"/>
	</g>
	<g class="st7">
		<path class="st4" d="M118.7,109.6c0,2.2,2.8,4,6.2,4c3.4,0,6.2-1.8,6.2-4c0-2.2-2.8-4-6.2-4C121.5,105.6,118.7,107.4,118.7,109.6z
			"/>
	</g>
	<path class="st27" d="M122.6,109.1l1.8-1.1c0.4-0.2,0.8-0.2,1.2,0l1.8,1.1c0.4,0.2,0.4,0.7,0,1l-1.8,1.1c-0.4,0.2-0.8,0.2-1.2,0
		l-1.8-1.1C122.2,109.8,122.2,109.3,122.6,109.1z"/>
	<path class="st28" d="M119.5,105.1c1.5-0.9,3.4-1.5,5.5-1.5s4,0.5,5.5,1.5c1.5,0.9,2.7,2.5,2.7,4.5v1.7c0,2-1.3,3.5-2.7,4.5
		c-1.5,0.9-3.4,1.5-5.5,1.5s-4-0.5-5.5-1.5c-1.5-0.9-2.7-2.5-2.7-4.5v-1.7C116.7,107.6,118,106,119.5,105.1z M125,105.6
		c-3.4,0-6.2,1.8-6.2,4v1.7c0,2.2,2.8,4,6.2,4c3.4,0,6.2-1.8,6.2-4v-1.7C131.2,107.4,128.4,105.6,125,105.6z"/>
	<circle class="st3" cx="133.3" cy="126.9" r="40.3"/>
</g>
<g id="busd_1_">
	<g id="BUSD">
		<circle class="st4" cx="133.5" cy="126.8" r="42.5"/>
		<path class="st29" d="M115.4,116l18.1-18.1l7.2,7.2l-18.1,18.1L115.4,116z M115.5,137.6l28.9-28.9l7.2,7.2l-28.9,28.9L115.5,137.6
			z M155.2,119.5l-28.9,28.9l7.2,7.2l28.9-28.9L155.2,119.5L155.2,119.5z M104.6,126.8l7.2-7.2l7.2,7.2l-7.2,7.2L104.6,126.8z"/>
		<circle class="st30" cx="133.5" cy="126.8" r="41.1"/>
	</g>
</g>
</svg>
